<?xml version="1.0" standalone="no"?>
<!DOCTYPE svg PUBLIC "-//W3C//DTD SVG 20010904//EN"
 "http://www.w3.org/TR/2001/REC-SVG-20010904/DTD/svg10.dtd">
<svg version="1.0" xmlns="http://www.w3.org/2000/svg"
 width="96.000000pt" height="96.000000pt" viewBox="0 0 96.000000 96.000000"
 preserveAspectRatio="xMidYMid meet">

<g transform="translate(0.000000,96.000000) scale(0.100000,-0.100000)"
fill="#000000" stroke="none">
<path d="M283 868 c-55 -27 -50 -114 8 -138 89 -37 151 99 63 139 -30 13 -42
13 -71 -1z"/>
<path d="M543 868 c-55 -27 -50 -114 8 -138 89 -37 151 99 63 139 -30 13 -42
13 -71 -1z"/>
<path d="M680 745 c0 -20 45 -65 65 -65 23 0 18 28 -10 55 -27 28 -55 33 -55
10z"/>
<path d="M258 664 c-49 -26 -58 -59 -58 -208 0 -79 4 -137 10 -141 6 -3 10
-51 10 -109 0 -80 3 -106 15 -116 12 -10 18 -10 30 0 12 10 15 37 15 121 l0
109 40 0 40 0 0 -108 c0 -71 4 -112 12 -120 8 -8 65 -12 189 -12 148 0 179 3
190 16 17 21 -3 212 -30 285 -15 38 -21 78 -21 132 0 90 -15 129 -60 152 -58
30 -161 10 -194 -37 -14 -20 -14 -20 -25 1 -25 47 -109 65 -163 35z m366 -60
c12 -11 16 -36 16 -93 0 -49 6 -93 16 -116 18 -45 44 -172 44 -221 l0 -34
-120 0 -120 0 0 34 c0 49 25 174 45 222 9 23 15 59 13 80 l-3 39 -40 -68 c-30
-52 -44 -67 -60 -65 -11 2 -21 11 -23 21 -4 20 80 169 111 198 26 24 99 26
121 3z"/>
</g>
</svg>
